# xmcd
#
# Track frame offsets:
#	150
#	14075
#	27606
#	38525
#	51093
#	67620
#	80970
#	95276
#	112235
#	122717
#	136701
#
# Disc length: 1941 seconds
#
# Revision: 1
# Processed by: cddbd v1.5.1PL2 Copyright (c) Steve Scherf et al.
# Submitted via: audiograbber 1.83.01
#
DISCID=9107930b
DTITLE=Jimmy Rogers and Friends - Colors Of Life
DYEAR=2002
DGENRE=Country
TTITLE0=Sometimes, Someday
TTITLE1=Wake Up, Slow Down
TTITLE2=Colors Of Life
TTITLE3=Love Is A Fantasy
TTITLE4=Just When I Needed You Most
TTITLE5=Boom Boom In My Heart
TTITLE6=Wann´s Für Mi Ka Morgen Mehr Gibt
TTITLE7=Una Tequila
TTITLE8=Sleep Tight Tonight
TTITLE9=Mary´s Boychild
TTITLE10=Pickup Truck (Instrumental)
EXTD=
EXTT0=
EXTT1=
EXTT2=
EXTT3=
EXTT4=
EXTT5=
EXTT6=
EXTT7=
EXTT8=
EXTT9=
EXTT10=
PLAYORDER=
